<svg width="120" height="120" viewBox="0 0 120 120" fill="none" xmlns="http://www.w3.org/2000/svg">
<path d="M120 60C120 93.1371 93.1371 120 60 120C26.8629 120 0 93.1371 0 60C0 26.8629 26.8629 0 60 0C93.1371 0 120 26.8629 120 60Z" fill="#009D9A"/>
<path d="M51.9646 119.352C47.7406 119.352 44.1886 119.064 41.3086 118.488C38.4286 117.976 36.1246 117.208 34.3966 116.184C32.6686 115.224 31.4206 114.008 30.6526 112.536C29.8846 111.128 29.5006 109.56 29.5006 107.832C29.5006 106.552 29.7886 105.368 30.3646 104.28C30.9406 103.256 31.7086 102.328 32.6686 101.496C33.6286 100.728 34.7486 100.056 36.0286 99.48C37.3086 98.904 38.6206 98.456 39.9646 98.136V97.752C37.8526 97.176 36.2206 96.152 35.0686 94.68C33.9166 93.208 33.3406 91.352 33.3406 89.112C33.3406 86.36 34.2046 84.216 35.9326 82.68C37.7246 81.144 39.8366 80.056 42.2686 79.416V79.032C39.1966 77.752 36.7646 75.896 34.9726 73.464C33.1806 70.968 32.2846 67.928 32.2846 64.344C32.2846 61.784 32.7646 59.48 33.7246 57.432C34.7486 55.384 36.1246 53.656 37.8526 52.248C39.6446 50.84 41.7566 49.784 44.1886 49.08C46.6206 48.312 49.3086 47.928 52.2526 47.928C55.1326 47.928 57.5646 48.216 59.5486 48.792C61.5326 49.368 63.3566 50.2 65.0206 51.288C65.1486 47.64 65.9486 45.08 67.4206 43.608C68.8926 42.072 70.7806 41.304 73.0846 41.304C74.6846 41.304 75.9966 41.784 77.0206 42.744C78.1086 43.64 78.6526 44.92 78.6526 46.584C78.6526 48.12 78.1406 49.4 77.1166 50.424C76.1566 51.384 74.8126 51.864 73.0846 51.864C71.1646 51.864 69.5966 51.16 68.3806 49.752H67.9966V53.688C69.1486 54.84 70.1726 56.28 71.0686 58.008C71.9646 59.672 72.4126 61.784 72.4126 64.344C72.4126 66.904 71.9006 69.208 70.8766 71.256C69.9166 73.304 68.5406 75.032 66.7486 76.44C64.9566 77.848 62.8126 78.936 60.3166 79.704C57.8846 80.472 55.1966 80.856 52.2526 80.856C51.1646 80.856 50.1086 80.792 49.0846 80.664C48.1246 80.536 47.1646 80.376 46.2046 80.184C44.8606 80.632 43.7086 81.304 42.7486 82.2C41.7886 83.096 41.3086 84.184 41.3086 85.464C41.3086 86.936 41.8526 87.992 42.9406 88.632C44.0926 89.272 45.9806 89.592 48.6046 89.592H59.8366C66.0446 89.592 70.5566 90.808 73.3726 93.24C76.1886 95.672 77.5966 99 77.5966 103.224C77.5966 108.216 75.4526 112.152 71.1646 115.032C66.9406 117.912 60.5406 119.352 51.9646 119.352ZM52.3486 75.672C55.4206 75.672 57.7246 74.84 59.2606 73.176C60.7966 71.512 61.5646 69.112 61.5646 65.976V62.808C61.5646 59.672 60.7966 57.272 59.2606 55.608C57.7246 53.944 55.4206 53.112 52.3486 53.112C49.2766 53.112 46.9726 53.944 45.4366 55.608C43.9006 57.272 43.1326 59.672 43.1326 62.808V65.976C43.1326 69.112 43.9006 71.512 45.4366 73.176C46.9726 74.84 49.2766 75.672 52.3486 75.672ZM38.5246 106.968C38.5246 109.336 39.5166 111.096 41.5006 112.248C43.4846 113.4 46.3006 113.976 49.9486 113.976H55.1326C59.4846 113.976 62.8126 113.272 65.1166 111.864C67.4846 110.52 68.6686 108.6 68.6686 106.104C68.6686 103.8 67.8686 102.136 66.2686 101.112C64.7326 100.088 62.2046 99.576 58.6846 99.576H43.1326C40.0606 101.176 38.5246 103.64 38.5246 106.968Z" fill="white"/>
</svg>
