<svg width="220" height="220" viewBox="0 0 220 220" fill="none" xmlns="http://www.w3.org/2000/svg">
<rect width="220" height="220" fill="white"/>
<mask id="mask0_5_5" style="mask-type:luminance" maskUnits="userSpaceOnUse" x="118" y="131" width="59" height="50">
<path d="M140.294 170.823C139.035 170.447 138.092 169.817 137.4 168.874C136.707 167.93 136.331 166.797 136.331 165.414C136.331 164.029 136.709 162.583 137.4 161.073C138.132 159.48 139.085 157.997 140.232 156.67C141.426 155.224 142.872 153.902 144.445 152.645C146.056 151.428 147.784 150.374 149.603 149.499C151.428 148.681 153.189 148.114 154.825 147.865C156.46 147.612 157.906 147.675 159.165 147.99C160.423 148.304 161.492 148.934 162.184 149.752C162.939 150.632 163.379 151.764 163.441 153.084C163.506 154.469 163.19 155.977 162.561 157.488C161.933 158.998 160.927 160.571 159.73 162.079C158.536 163.59 157.026 164.973 155.39 166.294C153.754 167.552 151.931 168.685 150.045 169.503C148.156 170.382 146.332 170.888 144.635 171.074C144.068 171.139 143.502 171.2 142.936 171.2C142.042 171.207 141.151 171.08 140.294 170.823ZM161.933 131.509C160.423 131.509 158.85 131.634 157.151 131.95C153.818 132.515 150.233 133.648 146.457 135.41C142.684 137.171 139.161 139.372 135.954 141.826C132.745 144.342 129.788 147.11 127.336 150.003C124.882 152.896 122.807 155.979 121.359 159.061C119.913 162.142 119.033 165.163 118.907 168.056C118.782 170.949 119.472 173.401 120.794 175.352C122.114 177.302 124.127 178.749 126.643 179.567C129.16 180.448 132.243 180.636 135.703 180.259C139.161 179.818 142.872 177.806 146.899 176.045C150.988 174.22 154.07 171.641 157.653 168.936C161.178 166.232 164.259 163.338 166.838 160.13C169.418 156.923 171.997 154.532 173.568 151.387C175.457 147.612 176.337 144.844 176.085 142.014C175.896 139.184 174.386 136.981 172.815 135.22C171.242 133.523 168.851 132.579 166.209 132.013C164.889 131.699 163.504 131.571 161.996 131.571C161.996 131.509 161.933 131.509 161.933 131.509Z" fill="white"/>
</mask>
<g mask="url(#mask0_5_5)">
<path d="M176.338 131.509H118.844V180.636H176.338V131.509Z" fill="url(#paint0_radial_5_5)"/>
</g>
<mask id="mask1_5_5" style="mask-type:luminance" maskUnits="userSpaceOnUse" x="36" y="36" width="54" height="59">
<path d="M81.6678 38.0981C77.8956 39.8594 75.8831 40.9301 72.3588 43.131C61.8536 49.6724 55.5633 53.1323 47.89 62.5685C44.8069 66.3423 42.9827 68.5432 40.8447 72.9466C39.7756 75.149 38.5166 78.7345 38.5166 78.7345L37.9515 82.7595L37.1336 88.2335L36.6925 93.1392L36.6297 94.3966C36.6297 94.0826 36.6941 93.8299 36.6941 93.5159C36.7553 93.0748 36.7553 92.6352 36.8825 92.1957C36.9412 91.73 37.025 91.2678 37.1336 90.8111C37.2592 90.37 37.322 89.8677 37.4476 89.3637C38.7066 84.5208 40.8447 79.4252 44.2418 73.7644C48.0156 67.4742 50.846 64.2654 56.0672 59.2342C61.2257 54.2013 64.6839 50.5531 70.9114 45.9613C74.6869 43.1938 83.9331 37.3446 89.4055 36.5895C89.7822 36.5251 89.9094 36.5251 89.7822 36.5251C89.2171 36.3996 83.9331 36.9663 81.6678 38.0981Z" fill="white"/>
</mask>
<g mask="url(#mask1_5_5)">
<path d="M89.9079 36.3996H36.5686V94.7105H89.9079V36.3996Z" fill="url(#paint1_linear_5_5)"/>
</g>
<mask id="mask2_5_5" style="mask-type:luminance" maskUnits="userSpaceOnUse" x="31" y="32" width="118" height="109">
<path d="M40.3409 140.943L39.9642 140.315C40.0898 140.567 40.2154 140.757 40.3409 140.943ZM148.786 47.346C148.524 47.0218 148.229 46.7265 147.905 46.4653L148.786 47.346ZM111.485 33.0041C107.396 33.8847 104.691 34.8282 100.099 36.7779C95.5076 38.7276 90.7259 41.1813 85.7574 44.2644C78.8688 48.5158 72.3462 53.3335 66.2571 58.6675C60.2196 63.9515 54.62 69.6767 49.7772 75.5258C44.8699 81.4393 40.7193 87.5396 37.5734 93.4531C34.3662 99.4906 32.9816 105.467 32.0382 110.939C31.8498 112.01 32.0382 113.016 31.9754 114.022C31.9126 115.029 32.8561 121.382 33.9251 125.974C34.3662 127.923 34.6174 129.057 35.3097 130.944C36.0648 133.207 37.6989 136.542 37.6989 136.542L38.5168 137.987L39.9642 140.315C39.4603 139.435 39.0207 138.554 38.7068 137.611C38.2657 136.416 37.9501 135.094 37.6989 133.711C37.496 132.273 37.3911 130.823 37.385 129.371C37.385 127.86 37.5106 126.225 37.7633 124.528C38.6424 118.614 40.9077 112.26 44.242 105.783C47.5119 99.4295 51.8524 93.012 56.9481 86.7845C62.1638 80.4002 67.9082 74.4668 74.1204 69.0471C80.4106 63.512 87.3304 58.3535 94.5641 54.013C100.413 50.4903 106.076 47.6599 111.485 45.5846C116.895 43.5077 121.989 42.1231 126.706 41.4952C131.488 40.8673 135.766 40.9929 139.477 41.9364C142.809 42.7542 145.641 44.2628 147.842 46.4025L144.698 43.131L140.483 39.3571L138.343 37.6586L133.5 35.7089C130.86 34.891 127.651 33.6964 124.129 33.1924C121.989 32.8785 119.033 32.5001 116.077 32.5001C114.504 32.5645 112.931 32.6885 111.485 33.0041Z" fill="white"/>
</mask>
<g mask="url(#mask2_5_5)">
<path d="M148.786 32.5629H31.9753V140.945H148.786V32.5629Z" fill="url(#paint2_radial_5_5)"/>
</g>
<mask id="mask3_5_5" style="mask-type:luminance" maskUnits="userSpaceOnUse" x="44" y="48" width="131" height="124">
<path d="M73.7418 171.641L71.9821 171.013C72.555 171.26 73.1418 171.47 73.7418 171.641ZM138.535 49.0445C132.998 49.6096 126.959 51.1826 120.545 53.6974C114.254 56.2154 107.586 59.6737 100.729 64.1399C93.1182 69.0471 86.01 74.7707 79.5314 80.9354C73.1976 86.9092 67.4083 93.4351 62.232 100.436C57.1991 107.23 53.0485 114.211 50.0926 121.005C47.0094 127.923 45.1853 134.717 44.8069 140.945C44.6813 143.334 44.7441 145.474 45.0597 147.549C45.3736 149.626 45.8776 151.513 46.5683 153.21C47.2395 154.917 48.1739 156.509 49.3375 157.927C50.4693 159.312 51.7895 160.571 53.2981 161.577L58.4581 164.847L63.3638 167.489L68.8378 169.88L71.9821 171.013C70.381 170.351 68.8614 169.505 67.4532 168.495C65.6478 167.185 64.11 165.541 62.9226 163.652C61.728 161.765 60.8474 159.627 60.2178 157.236C59.6527 154.846 59.4016 152.266 59.4644 149.373C59.6527 143.524 61.2257 137.107 63.9305 130.628C66.6353 124.212 70.4091 117.671 75.0637 111.318C79.8323 104.79 85.1798 98.7061 91.0413 93.1392C97.0788 87.414 103.747 82.13 110.856 77.6027C117.964 73.0721 124.882 69.6766 131.425 67.4114C138.029 65.0833 146.71 63.4492 152.245 63.4492C157.843 63.512 162.751 64.7694 166.587 67.2858C170.487 69.865 171.242 74.2684 172.562 79.5508L174.639 79.1112L167.97 61.625L166.272 57.7868C164.008 53.9502 160.17 51.3709 155.894 49.8624C153.377 48.9173 149.666 48.6034 145.892 48.6034C143.376 48.6678 140.798 48.7917 138.535 49.0445Z" fill="white"/>
</mask>
<g mask="url(#mask3_5_5)">
<path d="M174.576 48.6661H44.6814V171.641H174.576V48.6661Z" fill="url(#paint3_radial_5_5)"/>
</g>
<mask id="mask4_5_5" style="mask-type:luminance" maskUnits="userSpaceOnUse" x="74" y="84" width="112" height="102">
<path d="M130.103 179L127.085 180.132C128.405 179.693 129.725 179.189 131.11 178.624L130.103 179ZM143.313 87.1001C136.96 89.2382 130.166 92.4453 123.185 96.7246C116.343 100.968 109.938 105.877 104.062 111.38C98.2752 116.79 93.1167 122.576 88.839 128.553C84.4984 134.529 81.0401 140.692 78.5865 146.668C76.1328 152.77 74.8126 158.684 74.8754 164.093C74.9382 167.491 75.5033 170.509 76.574 173.151C77.7058 175.792 79.2788 178.057 81.3541 179.818C83.431 181.642 85.883 183.151 88.9018 183.781C91.9849 184.473 95.0036 184.977 98.9675 185.165H99.7853L105.572 184.788L111.232 184.096L114.063 183.592L119.221 182.46L124.191 181.013L125.576 180.573L127.085 180.007C123.311 181.266 119.725 182.019 116.454 182.335C112.05 182.774 108.088 182.335 104.754 181.203C101.482 180.07 98.8419 178.12 97.0161 175.541C95.192 172.961 94.123 169.691 93.9346 165.853C93.7462 161.514 94.6897 156.733 96.5138 151.827C98.338 146.982 101.043 142.014 104.503 137.234C107.9 132.452 112.05 127.735 116.642 123.394C121.366 118.978 126.53 115.058 132.053 111.694C137.653 108.297 143.125 105.783 148.282 104.208C153.503 102.574 158.347 101.881 162.688 102.134C167.027 102.385 170.865 103.519 173.758 105.657C176.714 107.795 178.852 110.939 179.796 115.092C180.237 113.834 183.005 112.891 183.381 111.569C183.76 110.249 184.074 108.99 184.326 107.669C184.578 106.349 185.395 99.1767 185.458 97.8565C185.206 97.1014 185.27 96.3463 184.83 95.5912C182.879 91.8802 180.867 90.4972 177.595 88.2947C173.884 85.7783 166.776 84.1441 161.302 84.0169H160.548C155.264 84.0169 149.478 85.0248 143.313 87.1001Z" fill="white"/>
</mask>
<g mask="url(#mask4_5_5)">
<path d="M185.331 84.0169H74.8142V185.291H185.331V84.0169Z" fill="url(#paint4_radial_5_5)"/>
</g>
<path d="M116.202 42.0619C115.446 44.5156 113.749 47.2204 111.358 49.8624C108.906 52.5672 105.697 55.3348 101.986 57.9124C98.0245 60.6722 93.8371 63.0926 89.4683 65.1477C84.903 67.3087 80.1703 69.0963 75.3164 70.4929C70.5347 71.8131 66.2569 72.5054 62.5458 72.6954C58.8976 72.821 55.8788 72.4442 53.5508 71.5636C51.2855 70.6829 49.7769 69.3611 49.1474 67.5386C48.5195 65.7756 48.6451 63.6375 49.7753 61.1211C50.0909 60.366 50.532 59.6109 51.0343 58.8558C51.5383 58.1024 52.0406 57.2845 52.6701 56.5294C53.298 55.7743 53.9903 54.9564 54.6826 54.2013C55.4393 53.4462 56.1928 52.63 57.0734 51.8749L59.3371 49.8624C62.6961 47.1339 66.2491 44.6533 69.9679 42.4403L71.9804 41.3068C71.9804 41.3068 67.8926 44.4512 65.8785 46.9676C64.7467 48.415 63.866 49.6096 63.3009 50.8686C62.797 52.0633 62.7342 53.1323 63.1126 53.9502C63.4893 54.7681 64.3072 55.3976 65.439 55.7743C66.5724 56.1526 68.1438 56.341 69.9051 56.2154C71.7293 56.0882 73.8062 55.7115 76.1326 55.082C78.4859 54.3888 80.7791 53.5057 82.9896 52.4416C85.1089 51.4211 87.1486 50.243 89.0915 48.9173C90.9157 47.6599 92.4886 46.3397 93.7444 45.0179C95.0034 43.6977 95.8857 42.3775 96.3253 41.1813C96.7648 39.985 96.702 38.9788 96.1997 38.1609C95.6957 37.4074 94.8151 36.8407 93.6205 36.464C92.4242 36.1484 90.9156 36.2112 89.1543 36.5268C87.4558 36.8407 85.3805 37.0291 83.178 37.6586C81.9281 38.0257 80.7084 38.4886 79.5297 39.0432C83.7447 36.8407 86.2595 35.8345 90.8529 34.3871C93.8088 33.4436 95.8213 32.9413 98.5261 32.439C101.672 31.8706 104.314 31.935 106.705 32.1234C109.094 32.3118 111.169 32.8157 112.742 33.632C114.315 34.4499 115.51 35.5205 116.075 36.9035C116.705 38.4137 116.767 40.1122 116.202 42.0619ZM175.33 147.361C175.33 147.361 174.261 150.191 173.317 151.89C172.436 153.463 170.738 155.664 170.738 155.664L169.794 156.921C168.725 158.306 166.964 160.318 166.964 160.318L164.638 162.897C162.184 165.414 159.416 167.805 156.398 170.131C153.223 172.458 149.903 174.58 146.457 176.484C142.935 178.435 139.161 180.132 135.324 181.58C131.488 183.027 127.524 184.22 123.499 185.04C122.681 185.228 121.926 185.354 121.171 185.479L118.907 185.857C118.15 185.983 117.397 186.046 116.705 186.171C115.951 186.236 115.259 186.297 114.567 186.36L110.226 186.548H109.283L104.628 186.423L99.9107 185.983C99.9107 185.983 99.0928 185.857 98.5905 185.795C96.8981 185.593 95.218 185.299 93.5577 184.914C91.5452 184.536 88.5248 183.718 88.5248 183.718L86.0084 182.837L85.3161 182.523C87.0774 183.215 89.4683 183.908 91.7335 184.222C94.2094 184.61 96.7123 184.799 99.2184 184.788C101.859 184.851 104.691 184.661 107.584 184.41C110.542 184.096 113.56 183.592 116.705 182.963C123.938 181.454 131.172 179.002 137.966 175.982C144.823 172.961 151.239 169.313 156.964 165.225C162.688 161.2 167.656 156.733 171.744 152.141C173.129 150.568 174.323 149.122 175.457 147.359C175.392 147.235 175.33 147.361 175.33 147.361Z" fill="#E50012"/>
<path d="M133.626 35.8344L138.721 37.7214L143.753 40.0494L145.514 40.9929C146.899 41.7464 148.156 42.627 149.162 43.5705C150.195 44.5213 151.048 45.6509 151.679 46.9048C152.307 48.1638 152.685 49.5468 152.875 50.9942C153.063 52.5028 152.938 54.1385 152.622 55.8371C151.679 60.4288 149.037 65.3989 144.949 70.3673C140.797 75.463 135.199 80.6214 128.532 85.4643C121.8 90.37 114.063 94.9633 105.823 98.9255C97.52 102.888 88.7761 106.159 79.9694 108.425C72.1077 110.437 64.9996 111.506 58.7721 111.632C52.6702 111.757 47.5118 111.065 43.424 109.555C39.4602 108.109 36.5042 105.908 34.8057 103.14C33.1699 100.436 32.6676 97.1014 33.4211 93.2648L33.7994 91.629L35.2468 86.2194L37.0709 80.9982L38.9578 76.5948L40.6564 73.0093L40.3408 73.7016L40.278 73.8272C38.6423 77.4127 38.3299 80.557 39.1462 83.1379C40.0269 85.7783 42.1022 87.9179 45.2481 89.3009C48.4552 90.7483 52.7958 91.4406 58.017 91.3778C63.301 91.3134 69.5285 90.37 76.5111 88.4831C83.4921 86.5961 90.4746 83.9541 97.0788 80.8098C103.431 77.7912 109.513 74.2346 115.259 70.179C120.604 66.3423 125.197 62.3157 128.593 58.2907C131.99 54.3269 134.255 50.4275 135.199 46.8436C135.638 45.0179 135.701 43.3193 135.45 41.8092C135.16 40.3526 134.512 38.9914 133.563 37.8486C132.62 36.7151 131.362 35.7717 129.852 35.015C128.76 34.4784 127.623 34.0367 126.455 33.6948L124.568 33.1924C125.386 33.318 125.827 33.3808 126.455 33.5692C126.455 33.5692 128.279 34.0103 129.475 34.3259C131.109 34.9538 133.626 35.8344 133.626 35.8344Z" fill="#E50012"/>
<path d="M167.468 58.5435L171.242 63.322L174.702 68.4176L176.212 70.9969C176.651 71.8147 177.091 72.6326 177.344 73.5761C177.658 74.4567 177.909 75.4002 178.099 76.3437C178.287 77.2871 178.35 78.3562 178.413 79.3624C178.413 80.4331 178.348 81.5021 178.224 82.6339C177.468 88.4831 174.576 94.7105 169.92 101.064C165.14 107.481 158.598 113.96 150.735 119.997C142.746 126.099 133.5 131.761 123.562 136.542C113.56 141.323 102.93 145.158 92.2987 147.675C84.6882 149.436 77.6429 150.444 71.2882 150.695C64.9995 150.946 59.4016 150.442 54.6199 149.31C49.9026 148.179 46.0031 146.48 42.9828 144.215C40.0268 142.014 37.8887 139.246 36.6925 136.1L35.4979 132.642L33.8621 126.727L32.7303 120.751L32.4791 119.052L32.1636 115.719C32.6047 118.927 33.9249 121.694 36.1274 124.022C38.5794 126.663 42.1649 128.677 46.6938 129.999C51.2855 131.383 56.8851 132.011 63.301 131.76C69.8424 131.57 77.2017 130.501 85.1905 128.551C95.2563 126.097 105.258 122.386 114.692 117.92C124.127 113.391 132.933 108.107 140.483 102.447C147.969 96.7858 154.258 90.8095 158.85 84.8976C163.379 79.0469 166.209 73.3217 167.09 67.9765C167.342 66.4663 167.405 65.0817 167.342 63.6987C167.276 62.4161 167.043 61.1476 166.65 59.9249C166.281 58.7466 165.752 57.6246 165.077 56.5906C164.7 55.9627 164.196 55.396 163.693 54.7664L166.838 58.0991L167.466 58.5403L167.468 58.5435Z" fill="#E50012"/>
<path d="M186.088 102.951C186.527 107.795 186.715 110.563 185.898 115.343C184.703 122.704 182.753 127.043 178.664 133.082C174.451 139.184 168.6 145.285 161.554 150.883C154.446 156.544 146.143 161.765 137.086 166.043C128.091 170.382 118.466 173.779 108.78 175.856C103.747 176.925 98.9673 177.617 94.4995 177.931C90.035 178.245 85.8828 178.183 82.109 177.806C78.6236 177.466 75.1854 176.748 71.8549 175.666C68.8361 174.66 66.1941 173.34 63.9932 171.767L59.3371 168.118L55.4377 164.596C55.4377 164.596 52.7973 162.017 51.2243 160.192C50.0909 158.935 48.5195 156.795 48.5195 156.795C50.3437 158.872 52.5445 160.634 55.3121 162.079C58.5836 163.778 62.4203 165.1 66.8864 165.853C71.4153 166.671 76.511 166.924 82.109 166.671C87.7697 166.42 93.9344 165.539 100.476 164.092C110.981 161.703 121.486 157.99 131.299 153.273C141.112 148.555 150.168 142.957 157.969 136.856C165.644 130.818 172.06 124.338 176.651 117.796C181.18 111.443 183.948 105.027 184.577 99.0511C184.64 98.4232 184.703 97.7937 184.703 97.1642C184.703 96.5363 184.639 95.9068 184.577 95.3401C184.513 94.7122 185.395 98.0448 185.395 98.0448C185.395 98.0448 185.898 101.064 186.088 102.951Z" fill="#E50012"/>
<defs>
<radialGradient id="paint0_radial_5_5" cx="0" cy="0" r="1" gradientUnits="userSpaceOnUse" gradientTransform="translate(155.812 131.51) scale(56.1376 56.1376)">
<stop stop-color="white"/>
<stop offset="1" stop-color="#E50012"/>
</radialGradient>
<linearGradient id="paint1_linear_5_5" x1="63.2544" y1="36.4301" x2="63.2544" y2="94.7202" gradientUnits="userSpaceOnUse">
<stop stop-color="#E50012"/>
<stop offset="1" stop-color="white"/>
</linearGradient>
<radialGradient id="paint2_radial_5_5" cx="0" cy="0" r="1" gradientUnits="userSpaceOnUse" gradientTransform="translate(112.433 33.4597) scale(129.372 129.372)">
<stop stop-color="white"/>
<stop offset="1" stop-color="#E50012"/>
</radialGradient>
<radialGradient id="paint3_radial_5_5" cx="0" cy="0" r="1" gradientUnits="userSpaceOnUse" gradientTransform="translate(134.181 49.6338) scale(138.047 138.047)">
<stop stop-color="white"/>
<stop offset="1" stop-color="#E50012"/>
</radialGradient>
<radialGradient id="paint4_radial_5_5" cx="0" cy="0" r="1" gradientUnits="userSpaceOnUse" gradientTransform="translate(150.983 84.838) scale(117.768 117.768)">
<stop stop-color="white"/>
<stop offset="1" stop-color="#E50012"/>
</radialGradient>
</defs>
</svg>
